solid CATIA STL
  facet normal  1.000000e+000  0.000000e+000  0.000000e+000
    outer loop
      vertex  1.000000e+002 -5.000000e+001  2.500000e+001
      vertex  1.000000e+002 -5.000000e+001 -2.500000e+001
      vertex  1.000000e+002 -2.000000e+001 -1.250000e+001
    endloop
  endfacet
  facet normal  1.000000e+000  0.000000e+000  -0.000000e+000
    outer loop
      vertex  1.000000e+002 -5.000000e+001  2.500000e+001
      vertex  1.000000e+002 -2.000000e+001 -1.250000e+001
      vertex  1.000000e+002 -2.000000e+001  2.500000e+000
    endloop
  endfacet
  facet normal  1.000000e+000  0.000000e+000  0.000000e+000
    outer loop
      vertex  1.000000e+002 -5.000000e+001  2.500000e+001
      vertex  1.000000e+002 -2.000000e+001  2.500000e+000
      vertex  1.000000e+002 -4.000000e+001  2.000000e+001
    endloop
  endfacet
  facet normal  1.000000e+000  0.000000e+000  -0.000000e+000
    outer loop
      vertex  1.000000e+002 -5.000000e+001  2.500000e+001
      vertex  1.000000e+002 -4.000000e+001  2.000000e+001
      vertex  1.000000e+002 -4.000000e+001  2.500000e+001
    endloop
  endfacet
  facet normal  1.000000e+000  -0.000000e+000  0.000000e+000
    outer loop
      vertex  1.000000e+002  5.000000e+001  2.500000e+001
      vertex  1.000000e+002  4.000000e+001  2.500000e+001
      vertex  1.000000e+002  4.000000e+001  2.000000e+001
    endloop
  endfacet
  facet normal  1.000000e+000  -0.000000e+000  0.000000e+000
    outer loop
      vertex  1.000000e+002  5.000000e+001  2.500000e+001
      vertex  1.000000e+002  4.000000e+001  2.000000e+001
      vertex  1.000000e+002  2.000000e+001  2.500000e+000
    endloop
  endfacet
  facet normal  1.000000e+000  -0.000000e+000  0.000000e+000
    outer loop
      vertex  1.000000e+002  5.000000e+001  2.500000e+001
      vertex  1.000000e+002  2.000000e+001  2.500000e+000
      vertex  1.000000e+002  2.000000e+001 -1.250000e+001
    endloop
  endfacet
  facet normal  1.000000e+000  -0.000000e+000  0.000000e+000
    outer loop
      vertex  1.000000e+002  5.000000e+001  2.500000e+001
      vertex  1.000000e+002  2.000000e+001 -1.250000e+001
      vertex  1.000000e+002  5.000000e+001 -2.500000e+001
    endloop
  endfacet
  facet normal  1.000000e+000  0.000000e+000  0.000000e+000
    outer loop
      vertex  1.000000e+002 -2.000000e+001  2.500000e+000
      vertex  1.000000e+002  2.000000e+001  2.500000e+000
      vertex  1.000000e+002 -4.000000e+001  2.000000e+001
    endloop
  endfacet
  facet normal  1.000000e+000  -0.000000e+000  0.000000e+000
    outer loop
      vertex  1.000000e+002 -4.000000e+001  2.000000e+001
      vertex  1.000000e+002  2.000000e+001  2.500000e+000
      vertex  1.000000e+002  4.000000e+001  2.000000e+001
    endloop
  endfacet
  facet normal  1.000000e+000  0.000000e+000  0.000000e+000
    outer loop
      vertex  1.000000e+002  5.000000e+001 -2.500000e+001
      vertex  1.000000e+002  2.000000e+001 -1.250000e+001
      vertex  1.000000e+002 -5.000000e+001 -2.500000e+001
    endloop
  endfacet
  facet normal  1.000000e+000  0.000000e+000  0.000000e+000
    outer loop
      vertex  1.000000e+002 -5.000000e+001 -2.500000e+001
      vertex  1.000000e+002  2.000000e+001 -1.250000e+001
      vertex  1.000000e+002 -2.000000e+001 -1.250000e+001
    endloop
  endfacet
  facet normal -1.000000e+000  0.000000e+000  -0.000000e+000
    outer loop
      vertex  9.000000e+001 -4.000000e+001 -1.500000e+001
      vertex  9.000000e+001  2.000000e+001 -1.250000e+001
      vertex  9.000000e+001  4.000000e+001 -1.500000e+001
    endloop
  endfacet
  facet normal -1.000000e+000  0.000000e+000  0.000000e+000
    outer loop
      vertex  9.000000e+001  4.000000e+001 -1.500000e+001
      vertex  9.000000e+001  2.000000e+001 -1.250000e+001
      vertex  9.000000e+001  2.000000e+001  2.500000e+000
    endloop
  endfacet
  facet normal -1.000000e+000  0.000000e+000  0.000000e+000
    outer loop
      vertex  9.000000e+001  4.000000e+001 -1.500000e+001
      vertex  9.000000e+001  2.000000e+001  2.500000e+000
      vertex  9.000000e+001  4.000000e+001  2.000000e+001
    endloop
  endfacet
  facet normal -1.000000e+000  0.000000e+000  0.000000e+000
    outer loop
      vertex  9.000000e+001  2.000000e+001 -1.250000e+001
      vertex  9.000000e+001 -4.000000e+001 -1.500000e+001
      vertex  9.000000e+001 -2.000000e+001 -1.250000e+001
    endloop
  endfacet
  facet normal -1.000000e+000  -0.000000e+000  0.000000e+000
    outer loop
      vertex  9.000000e+001 -2.000000e+001 -1.250000e+001
      vertex  9.000000e+001 -4.000000e+001 -1.500000e+001
      vertex  9.000000e+001 -4.000000e+001  2.000000e+001
    endloop
  endfacet
  facet normal -1.000000e+000  0.000000e+000  0.000000e+000
    outer loop
      vertex  9.000000e+001 -2.000000e+001 -1.250000e+001
      vertex  9.000000e+001 -4.000000e+001  2.000000e+001
      vertex  9.000000e+001 -2.000000e+001  2.500000e+000
    endloop
  endfacet
  facet normal -1.000000e+000  0.000000e+000  0.000000e+000
    outer loop
      vertex  9.000000e+001 -2.000000e+001  2.500000e+000
      vertex  9.000000e+001 -4.000000e+001  2.000000e+001
      vertex  9.000000e+001  4.000000e+001  2.000000e+001
    endloop
  endfacet
  facet normal -1.000000e+000  0.000000e+000  0.000000e+000
    outer loop
      vertex  9.000000e+001 -2.000000e+001  2.500000e+000
      vertex  9.000000e+001  4.000000e+001  2.000000e+001
      vertex  9.000000e+001  2.000000e+001  2.500000e+000
    endloop
  endfacet
  facet normal  0.000000e+000  0.000000e+000 -1.000000e+000
    outer loop
      vertex  1.000000e+002 -2.000000e+001  2.500000e+000
      vertex  9.000000e+001 -2.000000e+001  2.500000e+000
      vertex  1.000000e+002  2.000000e+001  2.500000e+000
    endloop
  endfacet
  facet normal  -0.000000e+000  0.000000e+000 -1.000000e+000
    outer loop
      vertex  1.000000e+002  2.000000e+001  2.500000e+000
      vertex  9.000000e+001 -2.000000e+001  2.500000e+000
      vertex  9.000000e+001  2.000000e+001  2.500000e+000
    endloop
  endfacet
  facet normal  0.000000e+000  1.000000e+000  0.000000e+000
    outer loop
      vertex  1.000000e+002 -2.000000e+001 -1.250000e+001
      vertex  9.000000e+001 -2.000000e+001 -1.250000e+001
      vertex  1.000000e+002 -2.000000e+001  2.500000e+000
    endloop
  endfacet
  facet normal  0.000000e+000  1.000000e+000  0.000000e+000
    outer loop
      vertex  1.000000e+002 -2.000000e+001  2.500000e+000
      vertex  9.000000e+001 -2.000000e+001 -1.250000e+001
      vertex  9.000000e+001 -2.000000e+001  2.500000e+000
    endloop
  endfacet
  facet normal  -0.000000e+000  0.000000e+000  1.000000e+000
    outer loop
      vertex  1.000000e+002  2.000000e+001 -1.250000e+001
      vertex  9.000000e+001  2.000000e+001 -1.250000e+001
      vertex  1.000000e+002 -2.000000e+001 -1.250000e+001
    endloop
  endfacet
  facet normal  0.000000e+000  0.000000e+000  1.000000e+000
    outer loop
      vertex  1.000000e+002 -2.000000e+001 -1.250000e+001
      vertex  9.000000e+001  2.000000e+001 -1.250000e+001
      vertex  9.000000e+001 -2.000000e+001 -1.250000e+001
    endloop
  endfacet
  facet normal  0.000000e+000 -1.000000e+000  0.000000e+000
    outer loop
      vertex  1.000000e+002  2.000000e+001  2.500000e+000
      vertex  9.000000e+001  2.000000e+001  2.500000e+000
      vertex  1.000000e+002  2.000000e+001 -1.250000e+001
    endloop
  endfacet
  facet normal  0.000000e+000 -1.000000e+000  0.000000e+000
    outer loop
      vertex  1.000000e+002  2.000000e+001 -1.250000e+001
      vertex  9.000000e+001  2.000000e+001  2.500000e+000
      vertex  9.000000e+001  2.000000e+001 -1.250000e+001
    endloop
  endfacet
  facet normal  0.000000e+000  1.000000e+000  0.000000e+000
    outer loop
      vertex -9.000000e+001 -4.000000e+001  2.000000e+001
      vertex  8.250000e+001 -4.000000e+001  7.500000e+000
      vertex  6.750000e+001 -4.000000e+001  7.500000e+000
    endloop
  endfacet
  facet normal  0.000000e+000  1.000000e+000  0.000000e+000
    outer loop
      vertex -9.000000e+001 -4.000000e+001  2.000000e+001
      vertex  6.750000e+001 -4.000000e+001  7.500000e+000
      vertex -6.750000e+001 -4.000000e+001  7.500000e+000
    endloop
  endfacet
  facet normal  0.000000e+000  1.000000e+000  0.000000e+000
    outer loop
      vertex -9.000000e+001 -4.000000e+001  2.000000e+001
      vertex -6.750000e+001 -4.000000e+001  7.500000e+000
      vertex -8.250000e+001 -4.000000e+001  7.500000e+000
    endloop
  endfacet
  facet normal  0.000000e+000  1.000000e+000  0.000000e+000
    outer loop
      vertex -9.000000e+001 -4.000000e+001  2.000000e+001
      vertex -8.250000e+001 -4.000000e+001  7.500000e+000
      vertex -8.250000e+001 -4.000000e+001 -7.500000e+000
    endloop
  endfacet
  facet normal  0.000000e+000  1.000000e+000  0.000000e+000
    outer loop
      vertex -9.000000e+001 -4.000000e+001  2.000000e+001
      vertex -8.250000e+001 -4.000000e+001 -7.500000e+000
      vertex -9.000000e+001 -4.000000e+001 -1.500000e+001
    endloop
  endfacet
  facet normal  0.000000e+000  1.000000e+000  -0.000000e+000
    outer loop
      vertex  9.000000e+001 -4.000000e+001  2.000000e+001
      vertex  9.000000e+001 -4.000000e+001 -1.500000e+001
      vertex  8.250000e+001 -4.000000e+001 -7.500000e+000
    endloop
  endfacet
  facet normal  0.000000e+000  1.000000e+000  0.000000e+000
    outer loop
      vertex  9.000000e+001 -4.000000e+001  2.000000e+001
      vertex  8.250000e+001 -4.000000e+001 -7.500000e+000
      vertex  8.250000e+001 -4.000000e+001  7.500000e+000
    endloop
  endfacet
  facet normal  0.000000e+000  1.000000e+000  -0.000000e+000
    outer loop
      vertex  9.000000e+001 -4.000000e+001  2.000000e+001
      vertex  8.250000e+001 -4.000000e+001  7.500000e+000
      vertex -9.000000e+001 -4.000000e+001  2.000000e+001
    endloop
  endfacet
  facet normal  0.000000e+000  1.000000e+000  0.000000e+000
    outer loop
      vertex  9.000000e+001 -4.000000e+001  2.000000e+001
      vertex -9.000000e+001 -4.000000e+001  2.000000e+001
      vertex  1.000000e+002 -4.000000e+001  2.500000e+001
    endloop
  endfacet
  facet normal  0.000000e+000  1.000000e+000  0.000000e+000
    outer loop
      vertex  9.000000e+001 -4.000000e+001  2.000000e+001
      vertex  1.000000e+002 -4.000000e+001  2.500000e+001
      vertex  1.000000e+002 -4.000000e+001  2.000000e+001
    endloop
  endfacet
  facet normal  0.000000e+000  1.000000e+000  0.000000e+000
    outer loop
      vertex  9.000000e+001 -4.000000e+001 -1.500000e+001
      vertex -9.000000e+001 -4.000000e+001 -1.500000e+001
      vertex -8.250000e+001 -4.000000e+001 -7.500000e+000
    endloop
  endfacet
  facet normal  -0.000000e+000  1.000000e+000  0.000000e+000
    outer loop
      vertex  9.000000e+001 -4.000000e+001 -1.500000e+001
      vertex -8.250000e+001 -4.000000e+001 -7.500000e+000
      vertex -6.750000e+001 -4.000000e+001 -7.500000e+000
    endloop
  endfacet
  facet normal  -0.000000e+000  1.000000e+000  0.000000e+000
    outer loop
      vertex  9.000000e+001 -4.000000e+001 -1.500000e+001
      vertex -6.750000e+001 -4.000000e+001 -7.500000e+000
      vertex  6.750000e+001 -4.000000e+001 -7.500000e+000
    endloop
  endfacet
  facet normal  -0.000000e+000  1.000000e+000  0.000000e+000
    outer loop
      vertex  9.000000e+001 -4.000000e+001 -1.500000e+001
      vertex  6.750000e+001 -4.000000e+001 -7.500000e+000
      vertex  8.250000e+001 -4.000000e+001 -7.500000e+000
    endloop
  endfacet
  facet normal  0.000000e+000  1.000000e+000  0.000000e+000
    outer loop
      vertex  6.750000e+001 -4.000000e+001 -7.500000e+000
      vertex -6.750000e+001 -4.000000e+001 -7.500000e+000
      vertex  6.750000e+001 -4.000000e+001  7.500000e+000
    endloop
  endfacet
  facet normal  0.000000e+000  1.000000e+000  0.000000e+000
    outer loop
      vertex  6.750000e+001 -4.000000e+001  7.500000e+000
      vertex -6.750000e+001 -4.000000e+001 -7.500000e+000
      vertex -6.750000e+001 -4.000000e+001  7.500000e+000
    endloop
  endfacet
  facet normal  0.000000e+000  1.000000e+000  0.000000e+000
    outer loop
      vertex -1.000000e+002 -4.000000e+001  2.500000e+001
      vertex  1.000000e+002 -4.000000e+001  2.500000e+001
      vertex -1.000000e+002 -4.000000e+001  2.000000e+001
    endloop
  endfacet
  facet normal  0.000000e+000  1.000000e+000  0.000000e+000
    outer loop
      vertex -1.000000e+002 -4.000000e+001  2.000000e+001
      vertex  1.000000e+002 -4.000000e+001  2.500000e+001
      vertex -9.000000e+001 -4.000000e+001  2.000000e+001
    endloop
  endfacet
  facet normal  0.000000e+000 -1.000000e+000  0.000000e+000
    outer loop
      vertex  9.000000e+001  4.000000e+001  2.000000e+001
      vertex -8.250000e+001  4.000000e+001  7.500000e+000
      vertex -6.750000e+001  4.000000e+001  7.500000e+000
    endloop
  endfacet
  facet normal  0.000000e+000 -1.000000e+000  0.000000e+000
    outer loop
      vertex  9.000000e+001  4.000000e+001  2.000000e+001
      vertex -6.750000e+001  4.000000e+001  7.500000e+000
      vertex  6.750000e+001  4.000000e+001  7.500000e+000
    endloop
  endfacet
  facet normal  0.000000e+000 -1.000000e+000  0.000000e+000
    outer loop
      vertex  9.000000e+001  4.000000e+001  2.000000e+001
      vertex  6.750000e+001  4.000000e+001  7.500000e+000
      vertex  8.250000e+001  4.000000e+001  7.500000e+000
    endloop
  endfacet
  facet normal  0.000000e+000 -1.000000e+000  0.000000e+000
    outer loop
      vertex  9.000000e+001  4.000000e+001  2.000000e+001
      vertex  8.250000e+001  4.000000e+001  7.500000e+000
      vertex  8.250000e+001  4.000000e+001 -7.500000e+000
    endloop
  endfacet
  facet normal  0.000000e+000 -1.000000e+000  0.000000e+000
    outer loop
      vertex  9.000000e+001  4.000000e+001  2.000000e+001
      vertex  8.250000e+001  4.000000e+001 -7.500000e+000
      vertex  9.000000e+001  4.000000e+001 -1.500000e+001
    endloop
  endfacet
  facet normal  0.000000e+000 -1.000000e+000  0.000000e+000
    outer loop
      vertex -9.000000e+001  4.000000e+001  2.000000e+001
      vertex -9.000000e+001  4.000000e+001 -1.500000e+001
      vertex -8.250000e+001  4.000000e+001 -7.500000e+000
    endloop
  endfacet
  facet normal  0.000000e+000 -1.000000e+000  0.000000e+000
    outer loop
      vertex -9.000000e+001  4.000000e+001  2.000000e+001
      vertex -8.250000e+001  4.000000e+001 -7.500000e+000
      vertex -8.250000e+001  4.000000e+001  7.500000e+000
    endloop
  endfacet
  facet normal  0.000000e+000 -1.000000e+000  0.000000e+000
    outer loop
      vertex -9.000000e+001  4.000000e+001  2.000000e+001
      vertex -8.250000e+001  4.000000e+001  7.500000e+000
      vertex  9.000000e+001  4.000000e+001  2.000000e+001
    endloop
  endfacet
  facet normal  0.000000e+000 -1.000000e+000  0.000000e+000
    outer loop
      vertex -9.000000e+001  4.000000e+001  2.000000e+001
      vertex  9.000000e+001  4.000000e+001  2.000000e+001
      vertex -1.000000e+002  4.000000e+001  2.500000e+001
    endloop
  endfacet
  facet normal  0.000000e+000 -1.000000e+000  0.000000e+000
    outer loop
      vertex -9.000000e+001  4.000000e+001  2.000000e+001
      vertex -1.000000e+002  4.000000e+001  2.500000e+001
      vertex -1.000000e+002  4.000000e+001  2.000000e+001
    endloop
  endfacet
  facet normal  0.000000e+000 -1.000000e+000  0.000000e+000
    outer loop
      vertex -9.000000e+001  4.000000e+001 -1.500000e+001
      vertex  9.000000e+001  4.000000e+001 -1.500000e+001
      vertex  8.250000e+001  4.000000e+001 -7.500000e+000
    endloop
  endfacet
  facet normal  -0.000000e+000 -1.000000e+000  0.000000e+000
    outer loop
      vertex -9.000000e+001  4.000000e+001 -1.500000e+001
      vertex  8.250000e+001  4.000000e+001 -7.500000e+000
      vertex  6.750000e+001  4.000000e+001 -7.500000e+000
    endloop
  endfacet
  facet normal  -0.000000e+000 -1.000000e+000  0.000000e+000
    outer loop
      vertex -9.000000e+001  4.000000e+001 -1.500000e+001
      vertex  6.750000e+001  4.000000e+001 -7.500000e+000
      vertex -6.750000e+001  4.000000e+001 -7.500000e+000
    endloop
  endfacet
  facet normal  -0.000000e+000 -1.000000e+000  0.000000e+000
    outer loop
      vertex -9.000000e+001  4.000000e+001 -1.500000e+001
      vertex -6.750000e+001  4.000000e+001 -7.500000e+000
      vertex -8.250000e+001  4.000000e+001 -7.500000e+000
    endloop
  endfacet
  facet normal  0.000000e+000 -1.000000e+000  0.000000e+000
    outer loop
      vertex -6.750000e+001  4.000000e+001 -7.500000e+000
      vertex  6.750000e+001  4.000000e+001 -7.500000e+000
      vertex -6.750000e+001  4.000000e+001  7.500000e+000
    endloop
  endfacet
  facet normal  0.000000e+000 -1.000000e+000  0.000000e+000
    outer loop
      vertex -6.750000e+001  4.000000e+001  7.500000e+000
      vertex  6.750000e+001  4.000000e+001 -7.500000e+000
      vertex  6.750000e+001  4.000000e+001  7.500000e+000
    endloop
  endfacet
  facet normal  0.000000e+000 -1.000000e+000  0.000000e+000
    outer loop
      vertex  1.000000e+002  4.000000e+001  2.500000e+001
      vertex -1.000000e+002  4.000000e+001  2.500000e+001
      vertex  1.000000e+002  4.000000e+001  2.000000e+001
    endloop
  endfacet
  facet normal  0.000000e+000 -1.000000e+000  0.000000e+000
    outer loop
      vertex  1.000000e+002  4.000000e+001  2.000000e+001
      vertex -1.000000e+002  4.000000e+001  2.500000e+001
      vertex  9.000000e+001  4.000000e+001  2.000000e+001
    endloop
  endfacet
  facet normal  0.000000e+000  0.000000e+000  1.000000e+000
    outer loop
      vertex  1.000000e+002 -4.000000e+001  2.000000e+001
      vertex  1.000000e+002  4.000000e+001  2.000000e+001
      vertex  9.000000e+001 -4.000000e+001  2.000000e+001
    endloop
  endfacet
  facet normal  0.000000e+000  0.000000e+000  1.000000e+000
    outer loop
      vertex  9.000000e+001 -4.000000e+001  2.000000e+001
      vertex  1.000000e+002  4.000000e+001  2.000000e+001
      vertex  9.000000e+001  4.000000e+001  2.000000e+001
    endloop
  endfacet
  facet normal  0.000000e+000  0.000000e+000  1.000000e+000
    outer loop
      vertex -9.000000e+001 -4.000000e+001  2.000000e+001
      vertex -9.000000e+001  4.000000e+001  2.000000e+001
      vertex -1.000000e+002 -4.000000e+001  2.000000e+001
    endloop
  endfacet
  facet normal  0.000000e+000  0.000000e+000  1.000000e+000
    outer loop
      vertex -1.000000e+002 -4.000000e+001  2.000000e+001
      vertex -9.000000e+001  4.000000e+001  2.000000e+001
      vertex -1.000000e+002  4.000000e+001  2.000000e+001
    endloop
  endfacet
  facet normal  0.000000e+000  0.000000e+000  1.000000e+000
    outer loop
      vertex -1.000000e+002  5.000000e+001  2.500000e+001
      vertex -1.000000e+002  4.000000e+001  2.500000e+001
      vertex  1.000000e+002  5.000000e+001  2.500000e+001
    endloop
  endfacet
  facet normal  0.000000e+000  0.000000e+000  1.000000e+000
    outer loop
      vertex  1.000000e+002  5.000000e+001  2.500000e+001
      vertex -1.000000e+002  4.000000e+001  2.500000e+001
      vertex  1.000000e+002  4.000000e+001  2.500000e+001
    endloop
  endfacet
  facet normal  0.000000e+000  0.000000e+000  1.000000e+000
    outer loop
      vertex -1.000000e+002 -4.000000e+001  2.500000e+001
      vertex -1.000000e+002 -5.000000e+001  2.500000e+001
      vertex  1.000000e+002 -4.000000e+001  2.500000e+001
    endloop
  endfacet
  facet normal  0.000000e+000  0.000000e+000  1.000000e+000
    outer loop
      vertex  1.000000e+002 -4.000000e+001  2.500000e+001
      vertex -1.000000e+002 -5.000000e+001  2.500000e+001
      vertex  1.000000e+002 -5.000000e+001  2.500000e+001
    endloop
  endfacet
  facet normal  1.000000e+000  -0.000000e+000  0.000000e+000
    outer loop
      vertex -9.000000e+001  4.000000e+001  2.000000e+001
      vertex -9.000000e+001 -4.000000e+001  2.000000e+001
      vertex -9.000000e+001  4.000000e+001 -1.500000e+001
    endloop
  endfacet
  facet normal  1.000000e+000  0.000000e+000  0.000000e+000
    outer loop
      vertex -9.000000e+001  4.000000e+001 -1.500000e+001
      vertex -9.000000e+001 -4.000000e+001  2.000000e+001
      vertex -9.000000e+001 -4.000000e+001 -1.500000e+001
    endloop
  endfacet
  facet normal -1.000000e+000  -0.000000e+000  0.000000e+000
    outer loop
      vertex -1.000000e+002 -5.000000e+001  2.500000e+001
      vertex -1.000000e+002 -4.000000e+001  2.500000e+001
      vertex -1.000000e+002 -5.000000e+001 -2.500000e+001
    endloop
  endfacet
  facet normal -1.000000e+000  0.000000e+000  0.000000e+000
    outer loop
      vertex -1.000000e+002 -5.000000e+001 -2.500000e+001
      vertex -1.000000e+002 -4.000000e+001  2.500000e+001
      vertex -1.000000e+002 -4.000000e+001  2.000000e+001
    endloop
  endfacet
  facet normal -1.000000e+000  0.000000e+000  -0.000000e+000
    outer loop
      vertex -1.000000e+002 -5.000000e+001 -2.500000e+001
      vertex -1.000000e+002 -4.000000e+001  2.000000e+001
      vertex -1.000000e+002  5.000000e+001 -2.500000e+001
    endloop
  endfacet
  facet normal -1.000000e+000  0.000000e+000  0.000000e+000
    outer loop
      vertex -1.000000e+002  5.000000e+001 -2.500000e+001
      vertex -1.000000e+002 -4.000000e+001  2.000000e+001
      vertex -1.000000e+002  4.000000e+001  2.000000e+001
    endloop
  endfacet
  facet normal -1.000000e+000  0.000000e+000  0.000000e+000
    outer loop
      vertex -1.000000e+002  5.000000e+001 -2.500000e+001
      vertex -1.000000e+002  4.000000e+001  2.000000e+001
      vertex -1.000000e+002  5.000000e+001  2.500000e+001
    endloop
  endfacet
  facet normal -1.000000e+000  -0.000000e+000  0.000000e+000
    outer loop
      vertex -1.000000e+002  5.000000e+001  2.500000e+001
      vertex -1.000000e+002  4.000000e+001  2.000000e+001
      vertex -1.000000e+002  4.000000e+001  2.500000e+001
    endloop
  endfacet
  facet normal  0.000000e+000 -1.000000e+000  0.000000e+000
    outer loop
      vertex -1.000000e+002 -5.000000e+001  2.500000e+001
      vertex -1.000000e+002 -5.000000e+001 -2.500000e+001
      vertex -8.250000e+001 -5.000000e+001 -7.500000e+000
    endloop
  endfacet
  facet normal  0.000000e+000 -1.000000e+000  0.000000e+000
    outer loop
      vertex -1.000000e+002 -5.000000e+001  2.500000e+001
      vertex -8.250000e+001 -5.000000e+001 -7.500000e+000
      vertex -8.250000e+001 -5.000000e+001  7.500000e+000
    endloop
  endfacet
  facet normal  0.000000e+000 -1.000000e+000  0.000000e+000
    outer loop
      vertex -1.000000e+002 -5.000000e+001  2.500000e+001
      vertex -8.250000e+001 -5.000000e+001  7.500000e+000
      vertex -6.750000e+001 -5.000000e+001  7.500000e+000
    endloop
  endfacet
  facet normal  0.000000e+000 -1.000000e+000  0.000000e+000
    outer loop
      vertex -1.000000e+002 -5.000000e+001  2.500000e+001
      vertex -6.750000e+001 -5.000000e+001  7.500000e+000
      vertex  6.750000e+001 -5.000000e+001  7.500000e+000
    endloop
  endfacet
  facet normal  0.000000e+000 -1.000000e+000  0.000000e+000
    outer loop
      vertex -1.000000e+002 -5.000000e+001  2.500000e+001
      vertex  6.750000e+001 -5.000000e+001  7.500000e+000
      vertex  8.250000e+001 -5.000000e+001  7.500000e+000
    endloop
  endfacet
  facet normal  0.000000e+000 -1.000000e+000  0.000000e+000
    outer loop
      vertex -1.000000e+002 -5.000000e+001  2.500000e+001
      vertex  8.250000e+001 -5.000000e+001  7.500000e+000
      vertex  1.000000e+002 -5.000000e+001  2.500000e+001
    endloop
  endfacet
  facet normal  0.000000e+000 -1.000000e+000  0.000000e+000
    outer loop
      vertex -1.000000e+002 -5.000000e+001 -2.500000e+001
      vertex  1.000000e+002 -5.000000e+001 -2.500000e+001
      vertex  8.250000e+001 -5.000000e+001 -7.500000e+000
    endloop
  endfacet
  facet normal  -0.000000e+000 -1.000000e+000  0.000000e+000
    outer loop
      vertex -1.000000e+002 -5.000000e+001 -2.500000e+001
      vertex  8.250000e+001 -5.000000e+001 -7.500000e+000
      vertex  6.750000e+001 -5.000000e+001 -7.500000e+000
    endloop
  endfacet
  facet normal  -0.000000e+000 -1.000000e+000  0.000000e+000
    outer loop
      vertex -1.000000e+002 -5.000000e+001 -2.500000e+001
      vertex  6.750000e+001 -5.000000e+001 -7.500000e+000
      vertex -6.750000e+001 -5.000000e+001 -7.500000e+000
    endloop
  endfacet
  facet normal  -0.000000e+000 -1.000000e+000  0.000000e+000
    outer loop
      vertex -1.000000e+002 -5.000000e+001 -2.500000e+001
      vertex -6.750000e+001 -5.000000e+001 -7.500000e+000
      vertex -8.250000e+001 -5.000000e+001 -7.500000e+000
    endloop
  endfacet
  facet normal  0.000000e+000 -1.000000e+000  0.000000e+000
    outer loop
      vertex  6.750000e+001 -5.000000e+001  7.500000e+000
      vertex -6.750000e+001 -5.000000e+001  7.500000e+000
      vertex  6.750000e+001 -5.000000e+001 -7.500000e+000
    endloop
  endfacet
  facet normal  0.000000e+000 -1.000000e+000  0.000000e+000
    outer loop
      vertex  6.750000e+001 -5.000000e+001 -7.500000e+000
      vertex -6.750000e+001 -5.000000e+001  7.500000e+000
      vertex -6.750000e+001 -5.000000e+001 -7.500000e+000
    endloop
  endfacet
  facet normal  0.000000e+000 -1.000000e+000  0.000000e+000
    outer loop
      vertex  1.000000e+002 -5.000000e+001  2.500000e+001
      vertex  8.250000e+001 -5.000000e+001  7.500000e+000
      vertex  1.000000e+002 -5.000000e+001 -2.500000e+001
    endloop
  endfacet
  facet normal  0.000000e+000 -1.000000e+000  0.000000e+000
    outer loop
      vertex  1.000000e+002 -5.000000e+001 -2.500000e+001
      vertex  8.250000e+001 -5.000000e+001  7.500000e+000
      vertex  8.250000e+001 -5.000000e+001 -7.500000e+000
    endloop
  endfacet
  facet normal  0.000000e+000  1.000000e+000  -0.000000e+000
    outer loop
      vertex  1.000000e+002  5.000000e+001  2.500000e+001
      vertex  1.000000e+002  5.000000e+001 -2.500000e+001
      vertex  8.250000e+001  5.000000e+001 -7.500000e+000
    endloop
  endfacet
  facet normal  0.000000e+000  1.000000e+000  0.000000e+000
    outer loop
      vertex  1.000000e+002  5.000000e+001  2.500000e+001
      vertex  8.250000e+001  5.000000e+001 -7.500000e+000
      vertex  8.250000e+001  5.000000e+001  7.500000e+000
    endloop
  endfacet
  facet normal  0.000000e+000  1.000000e+000  -0.000000e+000
    outer loop
      vertex  1.000000e+002  5.000000e+001  2.500000e+001
      vertex  8.250000e+001  5.000000e+001  7.500000e+000
      vertex  6.750000e+001  5.000000e+001  7.500000e+000
    endloop
  endfacet
  facet normal  0.000000e+000  1.000000e+000  -0.000000e+000
    outer loop
      vertex  1.000000e+002  5.000000e+001  2.500000e+001
      vertex  6.750000e+001  5.000000e+001  7.500000e+000
      vertex -6.750000e+001  5.000000e+001  7.500000e+000
    endloop
  endfacet
  facet normal  0.000000e+000  1.000000e+000  -0.000000e+000
    outer loop
      vertex  1.000000e+002  5.000000e+001  2.500000e+001
      vertex -6.750000e+001  5.000000e+001  7.500000e+000
      vertex -8.250000e+001  5.000000e+001  7.500000e+000
    endloop
  endfacet
  facet normal  0.000000e+000  1.000000e+000  -0.000000e+000
    outer loop
      vertex  1.000000e+002  5.000000e+001  2.500000e+001
      vertex -8.250000e+001  5.000000e+001  7.500000e+000
      vertex -1.000000e+002  5.000000e+001  2.500000e+001
    endloop
  endfacet
  facet normal  0.000000e+000  1.000000e+000  0.000000e+000
    outer loop
      vertex  1.000000e+002  5.000000e+001 -2.500000e+001
      vertex -1.000000e+002  5.000000e+001 -2.500000e+001
      vertex -8.250000e+001  5.000000e+001 -7.500000e+000
    endloop
  endfacet
  facet normal  -0.000000e+000  1.000000e+000  0.000000e+000
    outer loop
      vertex  1.000000e+002  5.000000e+001 -2.500000e+001
      vertex -8.250000e+001  5.000000e+001 -7.500000e+000
      vertex -6.750000e+001  5.000000e+001 -7.500000e+000
    endloop
  endfacet
  facet normal  -0.000000e+000  1.000000e+000  0.000000e+000
    outer loop
      vertex  1.000000e+002  5.000000e+001 -2.500000e+001
      vertex -6.750000e+001  5.000000e+001 -7.500000e+000
      vertex  6.750000e+001  5.000000e+001 -7.500000e+000
    endloop
  endfacet
  facet normal  -0.000000e+000  1.000000e+000  0.000000e+000
    outer loop
      vertex  1.000000e+002  5.000000e+001 -2.500000e+001
      vertex  6.750000e+001  5.000000e+001 -7.500000e+000
      vertex  8.250000e+001  5.000000e+001 -7.500000e+000
    endloop
  endfacet
  facet normal  0.000000e+000  1.000000e+000  0.000000e+000
    outer loop
      vertex -6.750000e+001  5.000000e+001  7.500000e+000
      vertex  6.750000e+001  5.000000e+001  7.500000e+000
      vertex -6.750000e+001  5.000000e+001 -7.500000e+000
    endloop
  endfacet
  facet normal  0.000000e+000  1.000000e+000  0.000000e+000
    outer loop
      vertex -6.750000e+001  5.000000e+001 -7.500000e+000
      vertex  6.750000e+001  5.000000e+001  7.500000e+000
      vertex  6.750000e+001  5.000000e+001 -7.500000e+000
    endloop
  endfacet
  facet normal  0.000000e+000  1.000000e+000  0.000000e+000
    outer loop
      vertex -1.000000e+002  5.000000e+001  2.500000e+001
      vertex -8.250000e+001  5.000000e+001  7.500000e+000
      vertex -1.000000e+002  5.000000e+001 -2.500000e+001
    endloop
  endfacet
  facet normal  0.000000e+000  1.000000e+000  0.000000e+000
    outer loop
      vertex -1.000000e+002  5.000000e+001 -2.500000e+001
      vertex -8.250000e+001  5.000000e+001  7.500000e+000
      vertex -8.250000e+001  5.000000e+001 -7.500000e+000
    endloop
  endfacet
  facet normal -1.000000e+000  0.000000e+000  0.000000e+000
    outer loop
      vertex  8.250000e+001 -4.000000e+001  7.500000e+000
      vertex  8.250000e+001 -4.000000e+001 -7.500000e+000
      vertex  8.250000e+001 -5.000000e+001  7.500000e+000
    endloop
  endfacet
  facet normal -1.000000e+000  0.000000e+000  0.000000e+000
    outer loop
      vertex  8.250000e+001 -5.000000e+001  7.500000e+000
      vertex  8.250000e+001 -4.000000e+001 -7.500000e+000
      vertex  8.250000e+001 -5.000000e+001 -7.500000e+000
    endloop
  endfacet
  facet normal -1.000000e+000  0.000000e+000  0.000000e+000
    outer loop
      vertex  8.250000e+001  5.000000e+001  7.500000e+000
      vertex  8.250000e+001  5.000000e+001 -7.500000e+000
      vertex  8.250000e+001  4.000000e+001  7.500000e+000
    endloop
  endfacet
  facet normal -1.000000e+000  0.000000e+000  0.000000e+000
    outer loop
      vertex  8.250000e+001  4.000000e+001  7.500000e+000
      vertex  8.250000e+001  5.000000e+001 -7.500000e+000
      vertex  8.250000e+001  4.000000e+001 -7.500000e+000
    endloop
  endfacet
  facet normal  0.000000e+000  0.000000e+000  1.000000e+000
    outer loop
      vertex  6.750000e+001 -5.000000e+001 -7.500000e+000
      vertex  8.250000e+001 -5.000000e+001 -7.500000e+000
      vertex  6.750000e+001 -4.000000e+001 -7.500000e+000
    endloop
  endfacet
  facet normal  -0.000000e+000  0.000000e+000  1.000000e+000
    outer loop
      vertex  6.750000e+001 -4.000000e+001 -7.500000e+000
      vertex  8.250000e+001 -5.000000e+001 -7.500000e+000
      vertex  8.250000e+001 -4.000000e+001 -7.500000e+000
    endloop
  endfacet
  facet normal  0.000000e+000  0.000000e+000  1.000000e+000
    outer loop
      vertex  6.750000e+001  4.000000e+001 -7.500000e+000
      vertex  8.250000e+001  4.000000e+001 -7.500000e+000
      vertex  6.750000e+001  5.000000e+001 -7.500000e+000
    endloop
  endfacet
  facet normal  -0.000000e+000  0.000000e+000  1.000000e+000
    outer loop
      vertex  6.750000e+001  5.000000e+001 -7.500000e+000
      vertex  8.250000e+001  4.000000e+001 -7.500000e+000
      vertex  8.250000e+001  5.000000e+001 -7.500000e+000
    endloop
  endfacet
  facet normal  1.000000e+000  0.000000e+000  0.000000e+000
    outer loop
      vertex  6.750000e+001 -4.000000e+001 -7.500000e+000
      vertex  6.750000e+001 -4.000000e+001  7.500000e+000
      vertex  6.750000e+001 -5.000000e+001 -7.500000e+000
    endloop
  endfacet
  facet normal  1.000000e+000  0.000000e+000  0.000000e+000
    outer loop
      vertex  6.750000e+001 -5.000000e+001 -7.500000e+000
      vertex  6.750000e+001 -4.000000e+001  7.500000e+000
      vertex  6.750000e+001 -5.000000e+001  7.500000e+000
    endloop
  endfacet
  facet normal  1.000000e+000  0.000000e+000  0.000000e+000
    outer loop
      vertex  6.750000e+001  5.000000e+001 -7.500000e+000
      vertex  6.750000e+001  5.000000e+001  7.500000e+000
      vertex  6.750000e+001  4.000000e+001 -7.500000e+000
    endloop
  endfacet
  facet normal  1.000000e+000  0.000000e+000  0.000000e+000
    outer loop
      vertex  6.750000e+001  4.000000e+001 -7.500000e+000
      vertex  6.750000e+001  5.000000e+001  7.500000e+000
      vertex  6.750000e+001  4.000000e+001  7.500000e+000
    endloop
  endfacet
  facet normal  0.000000e+000  0.000000e+000 -1.000000e+000
    outer loop
      vertex  8.250000e+001 -5.000000e+001  7.500000e+000
      vertex  6.750000e+001 -5.000000e+001  7.500000e+000
      vertex  8.250000e+001 -4.000000e+001  7.500000e+000
    endloop
  endfacet
  facet normal  -0.000000e+000  0.000000e+000 -1.000000e+000
    outer loop
      vertex  8.250000e+001 -4.000000e+001  7.500000e+000
      vertex  6.750000e+001 -5.000000e+001  7.500000e+000
      vertex  6.750000e+001 -4.000000e+001  7.500000e+000
    endloop
  endfacet
  facet normal  0.000000e+000  0.000000e+000 -1.000000e+000
    outer loop
      vertex  8.250000e+001  4.000000e+001  7.500000e+000
      vertex  6.750000e+001  4.000000e+001  7.500000e+000
      vertex  8.250000e+001  5.000000e+001  7.500000e+000
    endloop
  endfacet
  facet normal  -0.000000e+000  0.000000e+000 -1.000000e+000
    outer loop
      vertex  8.250000e+001  5.000000e+001  7.500000e+000
      vertex  6.750000e+001  4.000000e+001  7.500000e+000
      vertex  6.750000e+001  5.000000e+001  7.500000e+000
    endloop
  endfacet
  facet normal  0.000000e+000  0.000000e+000 -1.000000e+000
    outer loop
      vertex -6.750000e+001 -5.000000e+001  7.500000e+000
      vertex -8.250000e+001 -5.000000e+001  7.500000e+000
      vertex -6.750000e+001 -4.000000e+001  7.500000e+000
    endloop
  endfacet
  facet normal  -0.000000e+000  0.000000e+000 -1.000000e+000
    outer loop
      vertex -6.750000e+001 -4.000000e+001  7.500000e+000
      vertex -8.250000e+001 -5.000000e+001  7.500000e+000
      vertex -8.250000e+001 -4.000000e+001  7.500000e+000
    endloop
  endfacet
  facet normal  0.000000e+000  0.000000e+000 -1.000000e+000
    outer loop
      vertex -6.750000e+001  4.000000e+001  7.500000e+000
      vertex -8.250000e+001  4.000000e+001  7.500000e+000
      vertex -6.750000e+001  5.000000e+001  7.500000e+000
    endloop
  endfacet
  facet normal  -0.000000e+000  0.000000e+000 -1.000000e+000
    outer loop
      vertex -6.750000e+001  5.000000e+001  7.500000e+000
      vertex -8.250000e+001  4.000000e+001  7.500000e+000
      vertex -8.250000e+001  5.000000e+001  7.500000e+000
    endloop
  endfacet
  facet normal -1.000000e+000  0.000000e+000  0.000000e+000
    outer loop
      vertex -6.750000e+001 -4.000000e+001 -7.500000e+000
      vertex -6.750000e+001 -5.000000e+001 -7.500000e+000
      vertex -6.750000e+001 -4.000000e+001  7.500000e+000
    endloop
  endfacet
  facet normal -1.000000e+000  -0.000000e+000  0.000000e+000
    outer loop
      vertex -6.750000e+001 -4.000000e+001  7.500000e+000
      vertex -6.750000e+001 -5.000000e+001 -7.500000e+000
      vertex -6.750000e+001 -5.000000e+001  7.500000e+000
    endloop
  endfacet
  facet normal -1.000000e+000  0.000000e+000  0.000000e+000
    outer loop
      vertex -6.750000e+001  5.000000e+001 -7.500000e+000
      vertex -6.750000e+001  4.000000e+001 -7.500000e+000
      vertex -6.750000e+001  5.000000e+001  7.500000e+000
    endloop
  endfacet
  facet normal -1.000000e+000  -0.000000e+000  0.000000e+000
    outer loop
      vertex -6.750000e+001  5.000000e+001  7.500000e+000
      vertex -6.750000e+001  4.000000e+001 -7.500000e+000
      vertex -6.750000e+001  4.000000e+001  7.500000e+000
    endloop
  endfacet
  facet normal  0.000000e+000  0.000000e+000  1.000000e+000
    outer loop
      vertex -8.250000e+001 -5.000000e+001 -7.500000e+000
      vertex -6.750000e+001 -5.000000e+001 -7.500000e+000
      vertex -8.250000e+001 -4.000000e+001 -7.500000e+000
    endloop
  endfacet
  facet normal  -0.000000e+000  0.000000e+000  1.000000e+000
    outer loop
      vertex -8.250000e+001 -4.000000e+001 -7.500000e+000
      vertex -6.750000e+001 -5.000000e+001 -7.500000e+000
      vertex -6.750000e+001 -4.000000e+001 -7.500000e+000
    endloop
  endfacet
  facet normal  0.000000e+000  0.000000e+000  1.000000e+000
    outer loop
      vertex -8.250000e+001  4.000000e+001 -7.500000e+000
      vertex -6.750000e+001  4.000000e+001 -7.500000e+000
      vertex -8.250000e+001  5.000000e+001 -7.500000e+000
    endloop
  endfacet
  facet normal  -0.000000e+000  0.000000e+000  1.000000e+000
    outer loop
      vertex -8.250000e+001  5.000000e+001 -7.500000e+000
      vertex -6.750000e+001  4.000000e+001 -7.500000e+000
      vertex -6.750000e+001  5.000000e+001 -7.500000e+000
    endloop
  endfacet
  facet normal  1.000000e+000  -0.000000e+000  0.000000e+000
    outer loop
      vertex -8.250000e+001 -4.000000e+001  7.500000e+000
      vertex -8.250000e+001 -5.000000e+001  7.500000e+000
      vertex -8.250000e+001 -4.000000e+001 -7.500000e+000
    endloop
  endfacet
  facet normal  1.000000e+000  0.000000e+000  0.000000e+000
    outer loop
      vertex -8.250000e+001 -4.000000e+001 -7.500000e+000
      vertex -8.250000e+001 -5.000000e+001  7.500000e+000
      vertex -8.250000e+001 -5.000000e+001 -7.500000e+000
    endloop
  endfacet
  facet normal  1.000000e+000  -0.000000e+000  0.000000e+000
    outer loop
      vertex -8.250000e+001  5.000000e+001  7.500000e+000
      vertex -8.250000e+001  4.000000e+001  7.500000e+000
      vertex -8.250000e+001  5.000000e+001 -7.500000e+000
    endloop
  endfacet
  facet normal  1.000000e+000  0.000000e+000  0.000000e+000
    outer loop
      vertex -8.250000e+001  5.000000e+001 -7.500000e+000
      vertex -8.250000e+001  4.000000e+001  7.500000e+000
      vertex -8.250000e+001  4.000000e+001 -7.500000e+000
    endloop
  endfacet
  facet normal  0.000000e+000  0.000000e+000 -1.000000e+000
    outer loop
      vertex -1.000000e+002 -5.000000e+001 -2.500000e+001
      vertex -1.000000e+002  5.000000e+001 -2.500000e+001
      vertex  1.000000e+002 -5.000000e+001 -2.500000e+001
    endloop
  endfacet
  facet normal  0.000000e+000  0.000000e+000 -1.000000e+000
    outer loop
      vertex  1.000000e+002 -5.000000e+001 -2.500000e+001
      vertex -1.000000e+002  5.000000e+001 -2.500000e+001
      vertex  1.000000e+002  5.000000e+001 -2.500000e+001
    endloop
  endfacet
  facet normal  0.000000e+000  0.000000e+000  1.000000e+000
    outer loop
      vertex -9.000000e+001 -4.000000e+001 -1.500000e+001
      vertex  9.000000e+001 -4.000000e+001 -1.500000e+001
      vertex -9.000000e+001  4.000000e+001 -1.500000e+001
    endloop
  endfacet
  facet normal  -0.000000e+000  0.000000e+000  1.000000e+000
    outer loop
      vertex -9.000000e+001  4.000000e+001 -1.500000e+001
      vertex  9.000000e+001 -4.000000e+001 -1.500000e+001
      vertex  9.000000e+001  4.000000e+001 -1.500000e+001
    endloop
  endfacet
endsolid CATIA STL
