solid CATIA STL
  facet normal  0.000000e+000  1.000000e+000  0.000000e+000
    outer loop
      vertex -2.606869e+000  2.850000e+001  2.700000e+001
      vertex -7.500000e+001  2.850000e+001  7.695165e+000
      vertex -7.500000e+001  2.850000e+001  1.000000e+001
    endloop
  endfacet
  facet normal  0.000000e+000  1.000000e+000  0.000000e+000
    outer loop
      vertex -2.606869e+000  2.850000e+001  2.700000e+001
      vertex -7.500000e+001  2.850000e+001  1.000000e+001
      vertex -1.421085e-014  2.850000e+001  3.000000e+001
    endloop
  endfacet
  facet normal  -0.000000e+000  1.000000e+000  0.000000e+000
    outer loop
      vertex -2.606869e+000  2.850000e+001  2.700000e+001
      vertex -1.421085e-014  2.850000e+001  3.000000e+001
      vertex  7.500000e+001  2.850000e+001  3.000000e+001
    endloop
  endfacet
  facet normal  0.000000e+000  1.000000e+000  0.000000e+000
    outer loop
      vertex -2.606869e+000  2.850000e+001  2.700000e+001
      vertex  7.500000e+001  2.850000e+001  3.000000e+001
      vertex  7.500000e+001  2.850000e+001  2.700000e+001
    endloop
  endfacet
  facet normal  0.000000e+000 -1.000000e+000  0.000000e+000
    outer loop
      vertex -2.606869e+000 -2.850000e+001  2.700000e+001
      vertex  7.500000e+001 -2.850000e+001  2.700000e+001
      vertex  7.500000e+001 -2.850000e+001  3.000000e+001
    endloop
  endfacet
  facet normal  -0.000000e+000 -1.000000e+000  0.000000e+000
    outer loop
      vertex -2.606869e+000 -2.850000e+001  2.700000e+001
      vertex  7.500000e+001 -2.850000e+001  3.000000e+001
      vertex -1.421085e-014 -2.850000e+001  3.000000e+001
    endloop
  endfacet
  facet normal  0.000000e+000 -1.000000e+000  0.000000e+000
    outer loop
      vertex -2.606869e+000 -2.850000e+001  2.700000e+001
      vertex -1.421085e-014 -2.850000e+001  3.000000e+001
      vertex -7.500000e+001 -2.850000e+001  1.000000e+001
    endloop
  endfacet
  facet normal  0.000000e+000 -1.000000e+000  0.000000e+000
    outer loop
      vertex -2.606869e+000 -2.850000e+001  2.700000e+001
      vertex -7.500000e+001 -2.850000e+001  1.000000e+001
      vertex -7.500000e+001 -2.850000e+001  7.695165e+000
    endloop
  endfacet
  facet normal  1.000000e+000  0.000000e+000  0.000000e+000
    outer loop
      vertex  7.500000e+001 -2.850000e+001  3.000000e+001
      vertex  7.500000e+001 -2.850000e+001  2.700000e+001
      vertex  7.500000e+001  2.850000e+001  3.000000e+001
    endloop
  endfacet
  facet normal  1.000000e+000  0.000000e+000  0.000000e+000
    outer loop
      vertex  7.500000e+001  2.850000e+001  3.000000e+001
      vertex  7.500000e+001 -2.850000e+001  2.700000e+001
      vertex  7.500000e+001  2.850000e+001  2.700000e+001
    endloop
  endfacet
  facet normal  0.000000e+000  0.000000e+000  1.000000e+000
    outer loop
      vertex -1.421085e-014  2.850000e+001  3.000000e+001
      vertex -1.421085e-014 -2.850000e+001  3.000000e+001
      vertex  7.500000e+001  2.850000e+001  3.000000e+001
    endloop
  endfacet
  facet normal  0.000000e+000  0.000000e+000  1.000000e+000
    outer loop
      vertex  7.500000e+001  2.850000e+001  3.000000e+001
      vertex -1.421085e-014 -2.850000e+001  3.000000e+001
      vertex  7.500000e+001 -2.850000e+001  3.000000e+001
    endloop
  endfacet
  facet normal -2.576627e-001  0.000000e+000  9.662350e-001
    outer loop
      vertex -7.500000e+001  2.850000e+001  1.000000e+001
      vertex -7.500000e+001 -2.850000e+001  1.000000e+001
      vertex -1.421085e-014  2.850000e+001  3.000000e+001
    endloop
  endfacet
  facet normal -2.576627e-001  0.000000e+000  9.662350e-001
    outer loop
      vertex -1.421085e-014  2.850000e+001  3.000000e+001
      vertex -7.500000e+001 -2.850000e+001  1.000000e+001
      vertex -1.421085e-014 -2.850000e+001  3.000000e+001
    endloop
  endfacet
  facet normal -1.000000e+000  0.000000e+000  0.000000e+000
    outer loop
      vertex -7.500000e+001 -2.850000e+001  7.695165e+000
      vertex -7.500000e+001 -2.850000e+001  1.000000e+001
      vertex -7.500000e+001  2.850000e+001  7.695165e+000
    endloop
  endfacet
  facet normal -1.000000e+000  0.000000e+000  0.000000e+000
    outer loop
      vertex -7.500000e+001  2.850000e+001  7.695165e+000
      vertex -7.500000e+001 -2.850000e+001  1.000000e+001
      vertex -7.500000e+001  2.850000e+001  1.000000e+001
    endloop
  endfacet
  facet normal  2.576627e-001  0.000000e+000 -9.662350e-001
    outer loop
      vertex -2.606869e+000  2.850000e+001  2.700000e+001
      vertex -2.606869e+000 -2.850000e+001  2.700000e+001
      vertex -7.500000e+001  2.850000e+001  7.695165e+000
    endloop
  endfacet
  facet normal  2.576627e-001  0.000000e+000 -9.662350e-001
    outer loop
      vertex -7.500000e+001  2.850000e+001  7.695165e+000
      vertex -2.606869e+000 -2.850000e+001  2.700000e+001
      vertex -7.500000e+001 -2.850000e+001  7.695165e+000
    endloop
  endfacet
  facet normal  0.000000e+000  0.000000e+000 -1.000000e+000
    outer loop
      vertex  7.500000e+001  2.850000e+001  2.700000e+001
      vertex  7.500000e+001 -2.850000e+001  2.700000e+001
      vertex -2.606869e+000  2.850000e+001  2.700000e+001
    endloop
  endfacet
  facet normal  0.000000e+000  0.000000e+000 -1.000000e+000
    outer loop
      vertex -2.606869e+000  2.850000e+001  2.700000e+001
      vertex  7.500000e+001 -2.850000e+001  2.700000e+001
      vertex -2.606869e+000 -2.850000e+001  2.700000e+001
    endloop
  endfacet
endsolid CATIA STL
